<?xml version="1.0" ?><svg viewBox="0 0 64 64" xmlns="http://www.w3.org/2000/svg"><title/><g data-name="Layer 3" id="Layer_3"><path d="M59.53,57a5.72,5.72,0,0,1-6.35-3.5c2,.09,3.77-3.28,3.87-3.49-4.28,4.35-7.67-4.4-8.82-7.92a2.08,2.08,0,0,0,.21-.21A4.5,4.5,0,0,0,49.5,39v-5.8a1.69,1.69,0,0,0-1.69-1.69h0V27.75a15.81,15.81,0,1,0-31.62,0V31.5h0a1.69,1.69,0,0,0-1.69,1.69V39a4.5,4.5,0,0,0,1.06,2.89,2.08,2.08,0,0,0,.21.21C14.62,45.61,11.23,54.36,7,50c.1.21,1.83,3.58,3.87,3.49A5.72,5.72,0,0,1,4.47,57a5.7,5.7,0,0,0,4.06,2.24s.18,1.82-4.06,3.26H59.53c-4.24-1.44-4.06-3.26-4.06-3.26A5.7,5.7,0,0,0,59.53,57Zm-32-2.2a2.15,2.15,0,0,0,2-2.13V50.89l.65.07.42,0a15.18,15.18,0,0,0,2.86,0l.42,0,.65-.07v1.78a2.15,2.15,0,0,0,2,2.13l.9.06c-.34.81-1.54,2.79-5.41,2.86s-5.13-2.12-5.41-2.86ZM15.5,39v-5.8a.68.68,0,0,1,.69-.69H18c-.79,12,5.28,12.5,5.28,12.5C17,42.45,19.71,29.47,20.78,29l.57,3h2.83l1.23-6.94L27.79,32h5.45l-.59-4.53L35.47,32h6.12l-.41-4.94C44,30,46,42.29,40.53,45c0,0,5,0,5.14-12.5h2.14a.68.68,0,0,1,.69.69V39a3.5,3.5,0,0,1-.82,2.25,3.59,3.59,0,0,1-2.45,1.23l-.31,0-.12.3a9.53,9.53,0,0,1-4.88,5.27,33.18,33.18,0,0,1-3.22,1.27,17.47,17.47,0,0,1-1.8.47,14.78,14.78,0,0,1-4.83.14c-.32,0-.65-.08-1-.14a16.82,16.82,0,0,1-1.8-.47,33.18,33.18,0,0,1-3.22-1.27,9.53,9.53,0,0,1-4.88-5.27l-.12-.3-.31,0a3.59,3.59,0,0,1-2.45-1.23A3.5,3.5,0,0,1,15.5,39Zm31,22.51h-29v-3a3.27,3.27,0,0,1,3-3.25L24.23,55l1.34-.09c.26.85,1.55,3.87,6.44,3.79s6.17-3,6.42-3.79l1.34.09,3.69.25a3.27,3.27,0,0,1,3,3.25Z"/><path d="M26,40a1,1,0,0,0,1-1V36a1,1,0,0,0-2,0v3A1,1,0,0,0,26,40Z"/><path d="M38,40a1,1,0,0,0,1-1V36a1,1,0,0,0-2,0v3A1,1,0,0,0,38,40Z"/></g></svg>