<?xml version="1.0" ?><svg viewBox="0 0 64 64" xmlns="http://www.w3.org/2000/svg"><title/><g data-name="Layer 3" id="Layer_3"><path d="M26,35a1,1,0,0,0-1,1v3a1,1,0,0,0,2,0V36A1,1,0,0,0,26,35Z"/><path d="M38,35a1,1,0,0,0-1,1v3a1,1,0,0,0,2,0V36A1,1,0,0,0,38,35Z"/><path d="M16.5,62.5H50.27S62.82,11.66,32,9.78C1.24,11.48,13.73,62.5,13.73,62.5Zm6.27-1c0-.91-.12-2.33-.27-4-.06-.75-.14-1.54-.24-2.35v0l3.12-.21h.19c.26.85,1.58,3.87,6.44,3.79s6.17-3,6.42-3.79l.72,0,2.59.17v0c-.1.81-.18,1.6-.24,2.35-.15,1.63-.23,3.05-.27,4Zm4.73-6.7a2.15,2.15,0,0,0,2-2.13V50.89l.64.07.43,0a15.18,15.18,0,0,0,2.86,0l.42,0,.65-.07v1.78a2.15,2.15,0,0,0,2,2.13l.9.06c-.33.81-1.52,2.79-5.41,2.86h-.18c-3.85,0-5-2.13-5.23-2.86ZM42,46.73a9.53,9.53,0,0,1-2.1,1.33,30.78,30.78,0,0,1-3.22,1.26,15.23,15.23,0,0,1-1.8.48c-.51.1-1,.17-1.53.22a14.94,14.94,0,0,1-4.27-.22h0a16.63,16.63,0,0,1-1.79-.47,30.84,30.84,0,0,1-3.22-1.28A9.13,9.13,0,0,1,22,46.73c-.11-.09-.2-.2-.3-.29,0-1.12.08-2.19.19-3.2C23.32,29.29,32,25.54,32,25.54s8.68,3.75,10.13,17.7c.11,1,.17,2.08.19,3.2C42.22,46.53,42.13,46.64,42,46.73Z"/></g></svg>